<?xml version="1.0" encoding="utf-8"?>
<!-- Generator: Adobe Illustrator 21.0.0, SVG Export Plug-In . SVG Version: 6.00 Build 0)  -->
<svg version="1.1" id="svg_logo" xmlns="http://www.w3.org/2000/svg" xmlns:xlink="http://www.w3.org/1999/xlink" x="0px" y="0px"
	 viewBox="0 0 67 40" style="enable-background:new 0 0 67 40;" xml:space="preserve">
<style type="text/css">
	.st0{fill:#E2231A;}
</style>
<g id="XMLID_8_">
	<path id="XMLID_6_" class="st0" d="M58.7,11.4c0.4-0.4,1.1-1.1,1.9-1.7c0.5-0.4,2.6,0.1,2.1,0.7c-0.6,0.7-2.4,1.7-3,2.1
		C59,12.8,57.8,12.3,58.7,11.4"/>
	<path id="XMLID_9_" class="st0" d="M66.7,17.6c-1.9-0.4-2.7-1.3-2.8-2.1c-0.3-1.9,0.4-2.8-0.2-2.8s-1.6,0.4-1.6,0.9
		c-0.3,2.6-1.4,4.2-3.1,4.2c-1.8,0-2.1-2.4-1.8-3.9c0.3-1.1-0.7-0.8-1.5-0.5c-0.3,0.1-0.5,0.3-0.6,0.8c-0.2,0.9-0.5,2.3-1.8,3.1
		c-1.2,0.8-2.7,0.6-2.8-2.4c-0.1-3.4-3.5-1.9-4.6-1.5c-1.1,0.4-1.7,0.2-1.6,1.2c0.1,2.7-2,3.6-3.6,3.6c-2.2,0.1-3.3-1.5-3.3-2.1
		c2,0.1,3.2-0.2,4.1-0.9c1.1-1,0.8-3.3-2-3.6c-2.7-0.2-4.2,1.8-4.3,2.9c-0.9,0-1.1,0-2.2-0.1c-0.3-4-1.4-8.4-3.5-11
		c-2.1-2.6-7-3.5-12-3.5c-3,0-6.6,0.3-9.2,1s-4.6,1.8-6,3.9c-2.5,3.8-2.4,8.2-2.1,14c0.5,7.2,2.2,14.3,4.2,20.8
		c0.2,0.7,0.9,0.2,1.5-0.2c0.5-0.4,0.9-0.6,0.7-1C4.2,32.3,2.3,23.4,2,19C1.7,14.6,1.8,8.3,3.9,5.7C7,2,14.3,1.6,17.3,1.6
		c4.8-0.1,8.5,0.9,10.4,2.7c2.1,2.1,3.2,6.3,3.5,10.1c-0.4,0-1.1,0-1.6-0.1c-0.1-1.1-0.4-2.7-1-3.9c-1-2-2.4-3.2-4.5-4
		c-2.1-0.8-4.8-1.1-7.9-1.1c-3.6,0-7.5,1.1-9.6,3.8C5.2,11,4.6,13,4.6,16c0,2.7,0.4,5.9,1.4,8.3c1,2.4,2.7,4.9,4.8,5.9
		c1.2,0.6,3.1,0.8,4.5,0.8c4.5-0.2,13.2-2.5,15.5-5.9c2.5-3.7,2.1-8.9,2.1-9c1,0.1,1.5,0,2.2,0c0.1,1.3,1.4,3.8,5,3.8
		c3.6,0,4.8-3,5-3.9c0.2-0.7,1-1.2,2.2-1.3c1.4-0.2,0.3,1.3,2.2,3.6c1.8,2.1,3.8,0.5,4.2,0.2c0.8-0.6,1.6-2.1,1.8-2.8
		c0.1,2.1,1,3.4,3.2,3.6c2.2,0.2,3.7-1.4,4.2-2.3c1.3,2.1,2.9,2.6,3.3,2.5C66.6,19.3,67.4,17.8,66.7,17.6 M19.3,23.6
		c-1.2,0.1-3.2,0.1-4.5-0.5c-2.1-0.9-2.9-3.5-2.9-5.9c0-2.7,1.6-6,6.2-6c4.3,0,5.5,2.5,5.6,2.9c-0.7-0.1-3.8-0.4-5.4-0.3
		c-1.2,0.1-3.3,0.6-3.3,3.1c0,2.5,2.3,5.1,7.2,4c1.2-0.3,3.7-1.1,3.6-5.4c0.9,0.1,1.4,0.1,2.4,0.1C28.8,21.4,24.5,23.3,19.3,23.6
		 M24.1,15.7c0.3,1.8-0.8,4.1-4.1,3.7c-3.6-0.5-2.7-3.6-0.5-3.7C21.4,15.6,23.4,15.7,24.1,15.7 M27.9,25.3c-2.1,1.4-6,2.7-9.8,3.4
		c-2.4,0.4-5.2,0.4-6.9-0.8c-4-2.6-4.5-9.6-4.5-12.1c0-2.7,0.6-8.1,8.8-8.6c8.8-0.5,11.7,2.7,12.5,7.3l-2.5-0.2
		c-0.3-0.8-0.8-1.7-1.3-2.3C23,10.7,21,9.8,18.4,9.7c-7.6-0.1-8.4,5.3-8.3,7.9c0.2,2.7,1,6.2,3.9,7.3c1.1,0.5,3.1,0.6,4.4,0.6
		c4.2-0.2,8-1.5,10.1-4c0.9-1,1.3-3.2,1.3-4.8c0-0.4,0.1-0.5,0-0.9c0.4,0,1.4,0.1,1.4,0.1C31.1,19.2,30.8,23.3,27.9,25.3 M39,12.8
		c1.7-0.4,2.4,1.6,0,1.8c-1,0.1-1.8,0.1-1.8,0.1C37.5,13.7,38.2,13,39,12.8"/>
</g>
</svg>
